<?xml version="1.0" encoding="utf-8"?>
<!-- Generator: Adobe Illustrator 21.0.0, SVG Export Plug-In . SVG Version: 6.00 Build 0)  -->
<svg version="1.1" id="Layer_1" xmlns="http://www.w3.org/2000/svg" xmlns:xlink="http://www.w3.org/1999/xlink" x="0px" y="0px"
	 viewBox="0 0 101 98" style="enable-background:new 0 0 101 98;" xml:space="preserve">
<style type="text/css">
	.st0{fill:#064265;}
</style>
<g>
	<g>
		<path class="st0" d="M64.2,5H28.8c-3.9,0-7.2,3.2-7.2,7.2c0,3,1.9,5.6,4.6,6.7v10.2h40.5V18.8c2.7-1,4.6-3.6,4.6-6.7
			C71.3,8.2,68.1,5,64.2,5z"/>
	</g>
</g>
<g>
	<g>
		<rect y="92.5" class="st0" width="93" height="5.5"/>
	</g>
</g>
<g>
	<g>
		<path class="st0" d="M86.7,42.6c0-4.4-3.6-8-8-8H14.4c-4.4,0-8,3.6-8,8v9.7H0v5.5h6.3V87h80.3V57.9H93v-5.5h-6.3L86.7,42.6
			L86.7,42.6z"/>
	</g>
</g>
</svg>
